# xmcd CD database file generated by Grip 3.3.1
# 
# Track frame offsets:
#       150
#       4947
#       10330
#       19335
#       23090
#       30065
#       39630
#       43970
#       55292
#       72470
#       80467
#       92582
#       114177
#       162375
#       167940
#       188050
#       224392
#       234545
#       239995
# 
# Disc length: 3384 seconds
# 
# Revision: 1
# Processed by: cddbd v1.5.2PL0 Copyright (c) Steve Scherf et al.
# Submitted via: Grip 3.3.1
# 
DISCID=fe0d3613
DTITLE=Calefax Reed Quintet with Kai Wessel (altus) - Pärt, Byrd
DYEAR=1997
DGENRE=Blues
TTITLE0=Senex puerum portabat à 5 (arr. for reed quintet by Alban Wesley
TTITLE0=) - William Byrd
TTITLE1=O Weisheit - 7 Magnificat-Antiphone (arr. for voice and reed quin
TTITLE1=tet by Raaf Hekkema) - Arvo Pärt
TTITLE2=O Adonai - 7 Magnificat-Antiphone - Arvo Pärt
TTITLE3=O Spross aus Isais Wurzel - 7 Magnificat-Antiphone - Arvo Pärt
TTITLE4=O Schlüssel Davids - 7 Magnificat-Antiphone - Arvo Pärt
TTITLE5=O Morgenstern - 7 Magnificat-Antiphone - Arvo Pärt
TTITLE6=O König aller Völker - 7 Magnificat-Antiphone - Arvo Pärt
TTITLE7=O Immanuel - 7 Magnificat-Antiphone - Arvo Pärt
TTITLE8=Magnificat (arr. for voice and reed quintet by Raaf Hekkema) - Wi
TTITLE8=lliam Byrd 
TTITLE9=Senex puerum portabat à 4 (arr. for reed quintet by Alban Wesley
TTITLE9=) - William Byrd
TTITLE10=Arbos, for 7 (8) recorders and 3 triangles ad lib. (arr. for reed
TTITLE10=quintet by Eduard Wesley) - Arvo Pärt
TTITLE11=Summa, for violin, 2 violas and violoncello (arr. for reed quinte
TTITLE11=t by Eduard Wesley) - Arvo Pärt
TTITLE12=Pari Intervallo, for 4 recorders (arr. for reed quintet by Eduard
TTITLE12=Wesley) - Arvo Pärt
TTITLE13=Kyrie - Missa à 5 (arr. for reed quintet by Eduard Wesley) - Wil
TTITLE13=liam Byrd
TTITLE14=Gloria - Missa à 5 - William Byrd
TTITLE15=Credo - Missa à 5 - William Byrd
TTITLE16=Sanctus - Missa à 5 - William Byrd
TTITLE17=Benedictus - Missa à 5 - William Byrd
TTITLE18=Agnus Dei - Missa à 5 - William Byrd
EXTD=
EXTT0=
EXTT1=
EXTT2=
EXTT3=
EXTT4=
EXTT5=
EXTT6=
EXTT7=
EXTT8=
EXTT9=
EXTT10=
EXTT11=
EXTT12=
EXTT13=
EXTT14=
EXTT15=
EXTT16=
EXTT17=
EXTT18=
PLAYORDER=
